<?xml version="1.0" encoding="UTF-8" standalone="no"?>
<!-- Generator: Adobe Illustrator 16.0.0, SVG Export Plug-In . SVG Version: 6.00 Build 0)  -->
<svg id="Capa_1" xmlns:rdf="http://www.w3.org/1999/02/22-rdf-syntax-ns#" xmlns="http://www.w3.org/2000/svg" xml:space="preserve" height="33.655" viewBox="0 0 19.552743 33.654891" width="19.552" version="1.1" y="0px" x="0px" xmlns:cc="http://creativecommons.org/ns#" xmlns:dc="http://purl.org/dc/elements/1.1/"><metadata id="metadata3152"><rdf:RDF><cc:Work rdf:about=""><dc:format>image/svg+xml</dc:format><dc:type rdf:resource="http://purl.org/dc/dcmitype/StillImage"/><dc:title/></cc:Work></rdf:RDF></metadata><g id="g3114" transform="matrix(0.13932869,0,0,0.13932869,-7.0519304,-0.00517257)"><path id="path3116" d="m115.84,238.07c27.137-8.745,44.338-31.395,40.004-51.698,0.072-1.159-0.078-2.36-0.523-3.521l-44.64-115.03c7.073,0.251,19.395,2.292,36.933,10.983,29.163,14.475,41.828,35.843,41.828,35.843,8.27-24.12-19.31-51.688-38.6-60.644-13.48-6.255-40.7-19.41-55.925-26.792l-8.502-21.924c-1.654-4.256-6.442-6.379-10.706-4.717-4.265,1.651-6.375,6.446-4.72,10.703l58.008,149.46c-11.102-3.147-24.384-3.003-37.668,1.285-28.451,9.165-46.034,33.637-39.263,54.639,6.775,21.008,35.335,30.604,63.781,21.422z"/></g></svg>
