<?xml version="1.0" encoding="UTF-8" standalone="no"?>
<!-- Created with Inkscape (http://www.inkscape.org/) -->
<svg id="svg2" xmlns:rdf="http://www.w3.org/1999/02/22-rdf-syntax-ns#" xmlns="http://www.w3.org/2000/svg" height="160.08" width="157.32" version="1.1" xmlns:cc="http://creativecommons.org/ns#" xmlns:dc="http://purl.org/dc/elements/1.1/">
 <metadata id="metadata7">
  <rdf:RDF>
   <cc:Work rdf:about="">
    <dc:format>image/svg+xml</dc:format>
    <dc:type rdf:resource="http://purl.org/dc/dcmitype/StillImage"/>
    <dc:title/>
   </cc:Work>
  </rdf:RDF>
 </metadata>
 <g id="layer1" transform="translate(-449.96697,-154.2043)">
  <path id="path2996" fill="#000" d="m484.44,304.28-15.35,0,0-60c-6.3333-1.3333-12.667-2.6667-19-4,0.5483-2.2122-1.6249-7.1459,2.2814-6h16.719v-52s-5.8387-16.242-1.3461-22.096c4.554-5.9338,15.877-8.7872,21.989-4.475,5.1089,3.6046,2.6386,18.571,2.6386,18.571h81.719s-1.4199-16.464,4.4-20.081c6.6516-4.1344,18.232-0.70714,22.806,5.65,5.3407,7.4222-2.2056,27.343-2.2056,27.343v117.09h-15c0,3.3333-2,6.6667-2,10h-6c0-3.3333-2-6.6667-2-10h-80l-2,10h-6zm104.65-92.5s-10.056-0.66527-13.586-3.7672c-6.4509-5.668-10.021-23.733-10.021-23.733s-63.147-9.8744-82.393,10c-10.476,10.818-4,45-4,45s24.78-1.2239,34.265,6.7805c15.422,10.334,24.324,29.834,20.735,48.219h27.5s-4.5613-18.373,2.8571-28.929c8.5115-12.111,24.643-6.5714,24.643-6.5714zm-37,22.5,27,0,0,10c-6.3333-1.3333-20.667-2.6667-27-4zm-68-40c7.0711-7.0711,22.929-7.0711,30,0,7.0711,7.0711,7.0711,22.929,0,30-7.0711,7.0711-22.929,7.0711-30,0-7.0711-7.0711-7.0711-22.929,0-30zm24.98,5.1786c-3.6809-3.7182-12.063-3.9445-15.695-0.17857-3.4749,3.603-2.9084,11.546,0.71429,15,3.6186,3.4504,11.467,3.5378,15,0,3.4912-3.4957,3.4565-11.31-0.0193-14.821zm-7.8374,5.2679c1.235-0.197,2.9754,0.93106,3.0542,2.1792,0.0895,1.4167-1.7091,2.9362-3.1279,2.89-0.99709-0.0325-1.9989-1.1743-2.0612-2.17-0.075-1.1978,0.94969-2.7102,2.1349-2.8992zm16.875,20.268c1.8665-3.759,11.158-4.1403,12.589-0.19514,0.9553,2.6328-6.53,5.2875-6.53,5.2875l0.2223,4.8284,11.077-2.7962s-3.8045,6.1645-11.145,6.0332c-6.6729-0.11928-10.016-5.4142-10.016-5.4142l9.0734,2.1679-0.21351-4.8432s-6.0051-3.1594-5.0572-5.0685zm15.99-30.72c7.0711-7.0711,22.929-7.0711,30,0,7.0711,7.0711,7.0711,22.929,0,30-7.0711,7.0711-22.929,7.0711-30,0-7.0711-7.0711-7.0711-22.929,0-30zm20.962,5.4464c-3.5828-3.9364-12.211-4.2232-15.962-0.44643-3.6094,3.6344-3.1924,11.845,0.53571,15.357,3.5103,3.3072,10.984,2.9819,14.464-0.35714,3.5081-3.366,4.2348-10.958,0.96229-14.553zm-8.73,5.68c1.1022-0.30575,2.8014,0.28426,3.1435,1.3757,0.30683,0.97868-0.63613,2.3004-1.61,2.6221-1.1599,0.38315-3.0561-0.19436-3.4005-1.3664-0.30323-1.0318,0.83065-2.3439,1.867-2.6314z"/>
 </g>
</svg>
